<svg width="19" height="20" viewBox="0 0 19 20" fill="none" xmlns="http://www.w3.org/2000/svg">
<path fill-rule="evenodd" clip-rule="evenodd" d="M1.58325 8.23042C1.58325 3.7575 5.14575 0.0978394 9.49992 0.0978394C13.8541 0.0978394 17.4166 3.7575 17.4166 8.23042C17.4166 14.2485 10.2124 19.2907 9.97492 19.4534C9.81659 19.5347 9.65825 19.616 9.49992 19.616C9.34158 19.616 9.18325 19.5347 9.02492 19.4534C8.78742 19.2907 1.58325 14.2485 1.58325 8.23042ZM3.16658 8.23042C3.16658 12.622 7.99575 16.6883 9.49991 17.8269C11.0041 16.6883 15.8332 12.622 15.8332 8.23042C15.8332 4.65208 12.9832 1.72436 9.49991 1.72436C6.01658 1.72436 3.16658 4.65208 3.16658 8.23042ZM9.49992 4.97739C7.75825 4.97739 6.33325 6.44125 6.33325 8.23042C6.33325 10.0196 7.75825 11.4834 9.49992 11.4834C11.2416 11.4834 12.6666 10.0196 12.6666 8.23042C12.6666 6.44125 11.2416 4.97739 9.49992 4.97739ZM7.91658 8.23042C7.91658 9.125 8.62908 9.85693 9.49991 9.85693C10.3707 9.85693 11.0832 9.125 11.0832 8.23042C11.0832 7.33583 10.3707 6.6039 9.49991 6.6039C8.62908 6.6039 7.91658 7.33583 7.91658 8.23042Z" fill="#2697FF"/>
<mask id="mask0_39_4700" style="mask-type:luminance" maskUnits="userSpaceOnUse" x="1" y="0" width="17" height="20">
<path fill-rule="evenodd" clip-rule="evenodd" d="M1.58325 8.23042C1.58325 3.7575 5.14575 0.0978394 9.49992 0.0978394C13.8541 0.0978394 17.4166 3.7575 17.4166 8.23042C17.4166 14.2485 10.2124 19.2907 9.97492 19.4534C9.81659 19.5347 9.65825 19.616 9.49992 19.616C9.34158 19.616 9.18325 19.5347 9.02492 19.4534C8.78742 19.2907 1.58325 14.2485 1.58325 8.23042ZM3.16658 8.23042C3.16658 12.622 7.99575 16.6883 9.49991 17.8269C11.0041 16.6883 15.8332 12.622 15.8332 8.23042C15.8332 4.65208 12.9832 1.72436 9.49991 1.72436C6.01658 1.72436 3.16658 4.65208 3.16658 8.23042ZM9.49992 4.97739C7.75825 4.97739 6.33325 6.44125 6.33325 8.23042C6.33325 10.0196 7.75825 11.4834 9.49992 11.4834C11.2416 11.4834 12.6666 10.0196 12.6666 8.23042C12.6666 6.44125 11.2416 4.97739 9.49992 4.97739ZM7.91658 8.23042C7.91658 9.125 8.62908 9.85693 9.49991 9.85693C10.3707 9.85693 11.0832 9.125 11.0832 8.23042C11.0832 7.33583 10.3707 6.6039 9.49991 6.6039C8.62908 6.6039 7.91658 7.33583 7.91658 8.23042Z" fill="white"/>
</mask>
<g mask="url(#mask0_39_4700)">
<rect y="0.0978394" width="19" height="19.5182" fill="#2697FF"/>
</g>
</svg>
