<svg width="14" height="13" viewBox="0 0 14 13" fill="none" xmlns="http://www.w3.org/2000/svg">
<path fill-rule="evenodd" clip-rule="evenodd" d="M2.36274 1.08331H6.05374C6.37011 1.08331 6.58102 1.29998 6.58102 1.62498V5.41665C6.58102 5.74165 6.37011 5.95831 6.05374 5.95831H2.36274C2.04636 5.95831 1.83545 5.74165 1.83545 5.41665V1.62498C1.83545 1.29998 2.04636 1.08331 2.36274 1.08331ZM2.89002 4.87498H5.52645V2.16665H2.89002V4.87498ZM11.8539 1.08331H8.16288C7.84651 1.08331 7.63559 1.29998 7.63559 1.62498V5.41665C7.63559 5.74165 7.84651 5.95831 8.16288 5.95831H11.8539C12.1703 5.95831 12.3812 5.74165 12.3812 5.41665V1.62498C12.3812 1.29998 12.1703 1.08331 11.8539 1.08331ZM8.69017 4.87498H11.3266V2.16665H8.69017V4.87498ZM11.8539 7.04165H8.16288C7.84651 7.04165 7.63559 7.25831 7.63559 7.58331V11.375C7.63559 11.7 7.84651 11.9166 8.16288 11.9166H11.8539C12.1703 11.9166 12.3812 11.7 12.3812 11.375V7.58331C12.3812 7.25831 12.1703 7.04165 11.8539 7.04165ZM8.69017 10.8333H11.3266V8.12498H8.69017V10.8333ZM6.05374 7.04165H2.36274C2.04636 7.04165 1.83545 7.25831 1.83545 7.58331V11.375C1.83545 11.7 2.04636 11.9166 2.36274 11.9166H6.05374C6.37011 11.9166 6.58102 11.7 6.58102 11.375V7.58331C6.58102 7.25831 6.37011 7.04165 6.05374 7.04165ZM2.89002 10.8333H5.52645V8.12498H2.89002V10.8333Z" fill="#272727"/>
<mask id="mask0_39_4693" style="mask-type:luminance" maskUnits="userSpaceOnUse" x="1" y="1" width="12" height="11">
<path fill-rule="evenodd" clip-rule="evenodd" d="M2.36274 1.08331H6.05374C6.37011 1.08331 6.58102 1.29998 6.58102 1.62498V5.41665C6.58102 5.74165 6.37011 5.95831 6.05374 5.95831H2.36274C2.04636 5.95831 1.83545 5.74165 1.83545 5.41665V1.62498C1.83545 1.29998 2.04636 1.08331 2.36274 1.08331ZM2.89002 4.87498H5.52645V2.16665H2.89002V4.87498ZM11.8539 1.08331H8.16288C7.84651 1.08331 7.63559 1.29998 7.63559 1.62498V5.41665C7.63559 5.74165 7.84651 5.95831 8.16288 5.95831H11.8539C12.1703 5.95831 12.3812 5.74165 12.3812 5.41665V1.62498C12.3812 1.29998 12.1703 1.08331 11.8539 1.08331ZM8.69017 4.87498H11.3266V2.16665H8.69017V4.87498ZM11.8539 7.04165H8.16288C7.84651 7.04165 7.63559 7.25831 7.63559 7.58331V11.375C7.63559 11.7 7.84651 11.9166 8.16288 11.9166H11.8539C12.1703 11.9166 12.3812 11.7 12.3812 11.375V7.58331C12.3812 7.25831 12.1703 7.04165 11.8539 7.04165ZM8.69017 10.8333H11.3266V8.12498H8.69017V10.8333ZM6.05374 7.04165H2.36274C2.04636 7.04165 1.83545 7.25831 1.83545 7.58331V11.375C1.83545 11.7 2.04636 11.9166 2.36274 11.9166H6.05374C6.37011 11.9166 6.58102 11.7 6.58102 11.375V7.58331C6.58102 7.25831 6.37011 7.04165 6.05374 7.04165ZM2.89002 10.8333H5.52645V8.12498H2.89002V10.8333Z" fill="white"/>
</mask>
<g mask="url(#mask0_39_4693)">
<rect x="0.780762" width="12.6549" height="13" fill="#272727"/>
</g>
</svg>
