<svg width="30" height="30" viewBox="0 0 30 30" fill="none" xmlns="http://www.w3.org/2000/svg">
<g clip-path="url(#clip0_45_6071)">
<path d="M15.0715 29.8832C23.0829 29.8832 29.5775 23.3886 29.5775 15.3771C29.5775 7.36567 23.0829 0.871094 15.0715 0.871094C7.06001 0.871094 0.56543 7.36567 0.56543 15.3771C0.56543 23.3886 7.06001 29.8832 15.0715 29.8832Z" fill="#0077FF"/>
<path d="M15.9961 21.7632C9.3865 21.7632 5.61656 17.232 5.45947 9.69199H8.77031C8.87906 15.2262 11.3198 17.5703 13.2532 18.0537V9.69199H16.3708V14.4649C18.28 14.2595 20.2855 12.0845 20.9622 9.69199H24.0798C23.5602 12.6403 21.3852 14.8153 19.8385 15.7095C21.3852 16.4345 23.8624 18.3316 24.8049 21.7632H21.3731C20.636 19.4674 18.7995 17.6912 16.3708 17.4495V21.7632H15.9961Z" fill="white"/>
</g>
<defs>
<clipPath id="clip0_45_6071">
<rect width="29" height="29" fill="white" transform="translate(0.56543 0.871094)"/>
</clipPath>
</defs>
</svg>
