<svg width="30" height="30" viewBox="0 0 30 30" fill="none" xmlns="http://www.w3.org/2000/svg">
<g clip-path="url(#clip0_45_6078)">
<path d="M15.0715 29.8832C23.0829 29.8832 29.5775 23.3886 29.5775 15.3771C29.5775 7.36567 23.0829 0.871094 15.0715 0.871094C7.06001 0.871094 0.56543 7.36567 0.56543 15.3771C0.56543 23.3886 7.06001 29.8832 15.0715 29.8832Z" fill="url(#paint0_linear_45_6078)"/>
<path fill-rule="evenodd" clip-rule="evenodd" d="M7.1239 15.2201C11.3513 13.3842 14.1655 12.1643 15.5787 11.5725C19.6008 9.89359 20.4463 9.60371 20.9898 9.59163C21.1106 9.59163 21.3763 9.61579 21.5575 9.76073C21.7024 9.88151 21.7386 10.0385 21.7628 10.1593C21.787 10.2801 21.8111 10.5337 21.787 10.727C21.5695 13.0219 20.6274 18.59 20.1443 21.1506C19.939 22.2376 19.5404 22.6 19.1539 22.6362C18.3084 22.7087 17.6683 22.0806 16.859 21.5491C15.5787 20.7157 14.8661 20.1964 13.622 19.3751C12.1847 18.4329 13.1147 17.9136 13.9361 17.0681C14.1535 16.8507 17.8615 13.4688 17.934 13.1668C17.9461 13.1306 17.9461 12.9856 17.8615 12.9132C17.777 12.8407 17.6562 12.8648 17.5595 12.889C17.4267 12.9132 15.3975 14.2659 11.4479 16.9352C10.8682 17.3338 10.3488 17.5271 9.87775 17.515C9.35838 17.5029 8.36796 17.2251 7.61911 16.9835C6.71324 16.6937 5.98854 16.5367 6.04893 16.0294C6.08516 15.7636 6.44751 15.4979 7.1239 15.2201Z" fill="white"/>
</g>
<defs>
<linearGradient id="paint0_linear_45_6078" x1="15.0594" y1="0.871094" x2="15.0594" y2="29.6537" gradientUnits="userSpaceOnUse">
<stop stop-color="#2AABEE"/>
<stop offset="1" stop-color="#229ED9"/>
</linearGradient>
<clipPath id="clip0_45_6078">
<rect width="29" height="29" fill="white" transform="translate(0.56543 0.871094)"/>
</clipPath>
</defs>
</svg>
